<svg xmlns="http://www.w3.org/2000/svg" viewBox="0 0 100 100" fill="none">
  <defs>
    <linearGradient id="bg7" x1="0%" y1="0%" x2="100%" y2="100%">
      <stop offset="0%" style="stop-color:#FEF2F2"/>
      <stop offset="100%" style="stop-color:#FECACA"/>
    </linearGradient>
    <linearGradient id="skin7" x1="0%" y1="0%" x2="100%" y2="100%">
      <stop offset="0%" style="stop-color:#F8D5B8"/>
      <stop offset="100%" style="stop-color:#E8C098"/>
    </linearGradient>
    <linearGradient id="hair7" x1="0%" y1="0%" x2="100%" y2="100%">
      <stop offset="0%" style="stop-color:#FCD34D"/>
      <stop offset="100%" style="stop-color:#F59E0B"/>
    </linearGradient>
    <linearGradient id="shirt7" x1="0%" y1="0%" x2="100%" y2="100%">
      <stop offset="0%" style="stop-color:#EF4444"/>
      <stop offset="100%" style="stop-color:#DC2626"/>
    </linearGradient>
    <linearGradient id="cap7" x1="0%" y1="0%" x2="100%" y2="100%">
      <stop offset="0%" style="stop-color:#1F2937"/>
      <stop offset="100%" style="stop-color:#111827"/>
    </linearGradient>
    <filter id="shadow7" x="-20%" y="-20%" width="140%" height="140%">
      <feDropShadow dx="0" dy="2" stdDeviation="3" flood-opacity="0.15"/>
    </filter>
  </defs>
  <circle cx="50" cy="50" r="48" fill="url(#bg7)"/>
  <!-- Shirt/Body -->
  <path d="M50 62c-22 0-38 14-38 28v6h76v-6c0-14-16-28-38-28z" fill="url(#shirt7)" filter="url(#shadow7)"/>
  <!-- Neck -->
  <rect x="42" y="54" width="16" height="12" rx="2" fill="url(#skin7)"/>
  <!-- Face -->
  <ellipse cx="50" cy="44" rx="22" ry="24" fill="url(#skin7)" filter="url(#shadow7)"/>
  <!-- Hair showing under cap -->
  <path d="M30 46c-2-3-2-8 2-14 2 4 6 8 18 8s16-4 18-8c4 6 4 11 2 14-2-4-8-6-20-6s-18 2-20 6z" fill="url(#hair7)"/>
  <!-- Cap -->
  <ellipse cx="50" cy="28" rx="26" ry="14" fill="url(#cap7)" filter="url(#shadow7)"/>
  <path d="M24 28c0-6 12-12 26-12s26 6 26 12c0-10-12-18-26-18s-26 8-26 18z" fill="url(#cap7)"/>
  <!-- Cap brim -->
  <path d="M22 30c0 0 10 4 28 4s28-4 28-4c0 4-12 8-28 8s-28-4-28-8z" fill="#374151"/>
  <!-- Cap logo -->
  <circle cx="50" cy="22" r="4" fill="#F59E0B"/>
  <!-- Ears -->
  <ellipse cx="28" cy="46" rx="4" ry="5" fill="url(#skin7)"/>
  <ellipse cx="72" cy="46" rx="4" ry="5" fill="url(#skin7)"/>
  <!-- Eyebrows -->
  <path d="M36 38c2-1.5 6-2 8 0" stroke="#92400E" stroke-width="1.5" stroke-linecap="round" fill="none"/>
  <path d="M56 38c2-2 6-1.5 8 0" stroke="#92400E" stroke-width="1.5" stroke-linecap="round" fill="none"/>
  <!-- Eyes -->
  <ellipse cx="40" cy="44" rx="5" ry="5" fill="white"/>
  <ellipse cx="60" cy="44" rx="5" ry="5" fill="white"/>
  <ellipse cx="41" cy="44" rx="3" ry="3" fill="#1E40AF"/>
  <ellipse cx="61" cy="44" rx="3" ry="3" fill="#1E40AF"/>
  <circle cx="42" cy="43" r="1" fill="white"/>
  <circle cx="62" cy="43" r="1" fill="white"/>
  <!-- Nose -->
  <path d="M50 46v5c0 2-2 2-2 2" stroke="#D4A484" stroke-width="1.5" stroke-linecap="round" fill="none"/>
  <!-- Big smile -->
  <path d="M40 57c4 5 16 5 20 0" stroke="#B8846C" stroke-width="2" stroke-linecap="round" fill="none"/>
  <path d="M42 57c3 3 13 3 16 0" fill="white"/>
  <!-- Cheeks -->
  <ellipse cx="34" cy="52" rx="4" ry="2" fill="#FECACA" opacity="0.6"/>
  <ellipse cx="66" cy="52" rx="4" ry="2" fill="#FECACA" opacity="0.6"/>
</svg>