<svg xmlns="http://www.w3.org/2000/svg" viewBox="0 0 100 100" fill="none">
  <defs>
    <linearGradient id="bg2" x1="0%" y1="0%" x2="100%" y2="100%">
      <stop offset="0%" style="stop-color:#FFF0E6"/>
      <stop offset="100%" style="stop-color:#FFE0CC"/>
    </linearGradient>
    <linearGradient id="skin2" x1="0%" y1="0%" x2="100%" y2="100%">
      <stop offset="0%" style="stop-color:#8D5524"/>
      <stop offset="100%" style="stop-color:#6B3E1A"/>
    </linearGradient>
    <linearGradient id="hair2" x1="0%" y1="0%" x2="100%" y2="100%">
      <stop offset="0%" style="stop-color:#1A1A1A"/>
      <stop offset="100%" style="stop-color:#0D0D0D"/>
    </linearGradient>
    <linearGradient id="shirt2" x1="0%" y1="0%" x2="100%" y2="100%">
      <stop offset="0%" style="stop-color:#7C3AED"/>
      <stop offset="100%" style="stop-color:#5B21B6"/>
    </linearGradient>
    <filter id="shadow2" x="-20%" y="-20%" width="140%" height="140%">
      <feDropShadow dx="0" dy="2" stdDeviation="3" flood-opacity="0.15"/>
    </filter>
  </defs>
  <circle cx="50" cy="50" r="48" fill="url(#bg2)"/>
  <!-- Shirt/Body -->
  <path d="M50 62c-22 0-38 14-38 28v6h76v-6c0-14-16-28-38-28z" fill="url(#shirt2)" filter="url(#shadow2)"/>
  <!-- Neck -->
  <rect x="42" y="54" width="16" height="12" rx="2" fill="url(#skin2)"/>
  <!-- Face -->
  <ellipse cx="50" cy="42" rx="22" ry="24" fill="url(#skin2)" filter="url(#shadow2)"/>
  <!-- Afro Hair -->
  <ellipse cx="50" cy="32" rx="28" ry="22" fill="url(#hair2)"/>
  <circle cx="26" cy="38" r="8" fill="url(#hair2)"/>
  <circle cx="74" cy="38" r="8" fill="url(#hair2)"/>
  <!-- Ears -->
  <ellipse cx="28" cy="44" rx="4" ry="5" fill="url(#skin2)"/>
  <ellipse cx="72" cy="44" rx="4" ry="5" fill="url(#skin2)"/>
  <!-- Eyebrows -->
  <path d="M36 34c2-1.5 6-2 8 0" stroke="#1A1A1A" stroke-width="1.5" stroke-linecap="round" fill="none"/>
  <path d="M56 34c2-2 6-1.5 8 0" stroke="#1A1A1A" stroke-width="1.5" stroke-linecap="round" fill="none"/>
  <!-- Eyes -->
  <ellipse cx="40" cy="42" rx="5" ry="5" fill="white"/>
  <ellipse cx="60" cy="42" rx="5" ry="5" fill="white"/>
  <ellipse cx="41" cy="42" rx="3" ry="3" fill="#2D1F14"/>
  <ellipse cx="61" cy="42" rx="3" ry="3" fill="#2D1F14"/>
  <circle cx="42" cy="41" r="1" fill="white"/>
  <circle cx="62" cy="41" r="1" fill="white"/>
  <!-- Nose -->
  <ellipse cx="50" cy="50" rx="4" ry="3" fill="#7A4A20" opacity="0.6"/>
  <!-- Smile -->
  <path d="M42 55c3 4 13 4 16 0" stroke="#5A3515" stroke-width="2" stroke-linecap="round" fill="none"/>
  <!-- Cheeks -->
  <ellipse cx="34" cy="50" rx="4" ry="2" fill="#C4846C" opacity="0.4"/>
  <ellipse cx="66" cy="50" rx="4" ry="2" fill="#C4846C" opacity="0.4"/>
</svg>