<svg xmlns="http://www.w3.org/2000/svg" viewBox="0 0 100 100" fill="none">
  <defs>
    <linearGradient id="bg8" x1="0%" y1="0%" x2="100%" y2="100%">
      <stop offset="0%" style="stop-color:#EDE9FE"/>
      <stop offset="100%" style="stop-color:#DDD6FE"/>
    </linearGradient>
    <linearGradient id="skin8" x1="0%" y1="0%" x2="100%" y2="100%">
      <stop offset="0%" style="stop-color:#D4A574"/>
      <stop offset="100%" style="stop-color:#B8895A"/>
    </linearGradient>
    <linearGradient id="hair8" x1="0%" y1="0%" x2="100%" y2="100%">
      <stop offset="0%" style="stop-color:#1C1917"/>
      <stop offset="100%" style="stop-color:#0C0A09"/>
    </linearGradient>
    <linearGradient id="shirt8" x1="0%" y1="0%" x2="100%" y2="100%">
      <stop offset="0%" style="stop-color:#8B5CF6"/>
      <stop offset="100%" style="stop-color:#7C3AED"/>
    </linearGradient>
    <filter id="shadow8" x="-20%" y="-20%" width="140%" height="140%">
      <feDropShadow dx="0" dy="2" stdDeviation="3" flood-opacity="0.15"/>
    </filter>
  </defs>
  <circle cx="50" cy="50" r="48" fill="url(#bg8)"/>
  <!-- Shirt/Body with collar -->
  <path d="M50 62c-22 0-38 14-38 28v6h76v-6c0-14-16-28-38-28z" fill="url(#shirt8)" filter="url(#shadow8)"/>
  <!-- Collar -->
  <path d="M38 66l-4 10 16-6-12-4z" fill="#A78BFA"/>
  <path d="M62 66l4 10-16-6 12-4z" fill="#A78BFA"/>
  <!-- Neck -->
  <rect x="42" y="54" width="16" height="12" rx="2" fill="url(#skin8)"/>
  <!-- Face -->
  <ellipse cx="50" cy="42" rx="22" ry="24" fill="url(#skin8)" filter="url(#shadow8)"/>
  <!-- Short styled hair -->
  <path d="M28 38c0-14 10-26 22-26s22 12 22 26c0 3-0.5 6-1 8-1-10-6-18-21-18s-20 8-21 18c-0.5-2-1-5-1-8z" fill="url(#hair8)"/>
  <!-- Hair texture lines -->
  <path d="M35 20c2-3 8-6 15-6M50 14c7 0 13 3 15 6" stroke="#292524" stroke-width="1.5" stroke-linecap="round" fill="none"/>
  <!-- Fade on sides -->
  <path d="M28 38c0-4 1-8 3-11-1 3-1 7-1 11 0 2 0 4-1 4-1-1-1-2-1-4z" fill="#44403C" opacity="0.6"/>
  <path d="M72 38c0-4-1-8-3-11 1 3 1 7 1 11 0 2 0 4 1 4 1-1 1-2 1-4z" fill="#44403C" opacity="0.6"/>
  <!-- Ears -->
  <ellipse cx="28" cy="44" rx="4" ry="5" fill="url(#skin8)"/>
  <ellipse cx="72" cy="44" rx="4" ry="5" fill="url(#skin8)"/>
  <!-- Eyebrows -->
  <path d="M35 34c2-1.5 6-2 9 0" stroke="#1C1917" stroke-width="2" stroke-linecap="round" fill="none"/>
  <path d="M56 34c3-2 7-1.5 9 0" stroke="#1C1917" stroke-width="2" stroke-linecap="round" fill="none"/>
  <!-- Eyes -->
  <ellipse cx="40" cy="42" rx="5" ry="5" fill="white"/>
  <ellipse cx="60" cy="42" rx="5" ry="5" fill="white"/>
  <ellipse cx="41" cy="42" rx="3" ry="3" fill="#292524"/>
  <ellipse cx="61" cy="42" rx="3" ry="3" fill="#292524"/>
  <circle cx="42" cy="41" r="1" fill="white"/>
  <circle cx="62" cy="41" r="1" fill="white"/>
  <!-- Nose -->
  <ellipse cx="50" cy="50" rx="3.5" ry="2.5" fill="#A07850" opacity="0.5"/>
  <!-- Beard/stubble -->
  <path d="M34 52c0 8 7 14 16 14s16-6 16-14" fill="#1C1917" opacity="0.15"/>
  <!-- Smile -->
  <path d="M43 55c2.5 3 11.5 3 14 0" stroke="#8B6B4A" stroke-width="2" stroke-linecap="round" fill="none"/>
</svg>