<svg xmlns="http://www.w3.org/2000/svg" viewBox="0 0 100 100" fill="none">
  <defs>
    <linearGradient id="bg3" x1="0%" y1="0%" x2="100%" y2="100%">
      <stop offset="0%" style="stop-color:#F0FDF4"/>
      <stop offset="100%" style="stop-color:#DCFCE7"/>
    </linearGradient>
    <linearGradient id="skin3" x1="0%" y1="0%" x2="100%" y2="100%">
      <stop offset="0%" style="stop-color:#FDE7C7"/>
      <stop offset="100%" style="stop-color:#E8CBA7"/>
    </linearGradient>
    <linearGradient id="hair3" x1="0%" y1="0%" x2="100%" y2="100%">
      <stop offset="0%" style="stop-color:#D97706"/>
      <stop offset="100%" style="stop-color:#B45309"/>
    </linearGradient>
    <linearGradient id="shirt3" x1="0%" y1="0%" x2="100%" y2="100%">
      <stop offset="0%" style="stop-color:#10B981"/>
      <stop offset="100%" style="stop-color:#059669"/>
    </linearGradient>
    <filter id="shadow3" x="-20%" y="-20%" width="140%" height="140%">
      <feDropShadow dx="0" dy="2" stdDeviation="3" flood-opacity="0.15"/>
    </filter>
  </defs>
  <circle cx="50" cy="50" r="48" fill="url(#bg3)"/>
  <!-- Shirt/Body -->
  <path d="M50 62c-22 0-38 14-38 28v6h76v-6c0-14-16-28-38-28z" fill="url(#shirt3)" filter="url(#shadow3)"/>
  <!-- Neck -->
  <rect x="42" y="54" width="16" height="12" rx="2" fill="url(#skin3)"/>
  <!-- Face -->
  <ellipse cx="50" cy="42" rx="22" ry="24" fill="url(#skin3)" filter="url(#shadow3)"/>
  <!-- Long Hair -->
  <path d="M26 42c0-16 11-28 24-28s24 12 24 28c0 3-0.5 6-1.5 9 0-10-5-20-22.5-20S28 41 28 51c-1-3-2-6-2-9z" fill="url(#hair3)"/>
  <path d="M26 44c-2 0-4 4-4 10s2 14 6 18c-1-4-1-8 0-12 0-6 1-12-2-16z" fill="url(#hair3)"/>
  <path d="M74 44c2 0 4 4 4 10s-2 14-6 18c1-4 1-8 0-12 0-6-1-12 2-16z" fill="url(#hair3)"/>
  <!-- Ears -->
  <ellipse cx="28" cy="44" rx="4" ry="5" fill="url(#skin3)"/>
  <ellipse cx="72" cy="44" rx="4" ry="5" fill="url(#skin3)"/>
  <!-- Glasses -->
  <rect x="31" y="36" width="16" height="12" rx="2" stroke="#374151" stroke-width="2" fill="none"/>
  <rect x="53" y="36" width="16" height="12" rx="2" stroke="#374151" stroke-width="2" fill="none"/>
  <path d="M47 42h6" stroke="#374151" stroke-width="2"/>
  <path d="M31 40h-4" stroke="#374151" stroke-width="2"/>
  <path d="M69 40h4" stroke="#374151" stroke-width="2"/>
  <!-- Eyes behind glasses -->
  <ellipse cx="39" cy="42" rx="4" ry="4" fill="white"/>
  <ellipse cx="61" cy="42" rx="4" ry="4" fill="white"/>
  <ellipse cx="40" cy="42" rx="2.5" ry="2.5" fill="#166534"/>
  <ellipse cx="62" cy="42" rx="2.5" ry="2.5" fill="#166534"/>
  <circle cx="41" cy="41" r="0.8" fill="white"/>
  <circle cx="63" cy="41" r="0.8" fill="white"/>
  <!-- Freckles -->
  <circle cx="36" cy="50" r="1" fill="#D97706" opacity="0.5"/>
  <circle cx="40" cy="52" r="1" fill="#D97706" opacity="0.5"/>
  <circle cx="60" cy="52" r="1" fill="#D97706" opacity="0.5"/>
  <circle cx="64" cy="50" r="1" fill="#D97706" opacity="0.5"/>
  <!-- Nose -->
  <path d="M50 44v5c0 2-2 2-2 2" stroke="#D4A574" stroke-width="1.5" stroke-linecap="round" fill="none"/>
  <!-- Smile -->
  <path d="M43 54c2.5 3 11.5 3 14 0" stroke="#B8846C" stroke-width="2" stroke-linecap="round" fill="none"/>
</svg>