<svg xmlns="http://www.w3.org/2000/svg" viewBox="0 0 100 100" fill="none">
  <defs>
    <linearGradient id="bg1" x1="0%" y1="0%" x2="100%" y2="100%">
      <stop offset="0%" style="stop-color:#E8F4FD"/>
      <stop offset="100%" style="stop-color:#C5E3F6"/>
    </linearGradient>
    <linearGradient id="skin1" x1="0%" y1="0%" x2="100%" y2="100%">
      <stop offset="0%" style="stop-color:#FFDBB4"/>
      <stop offset="100%" style="stop-color:#EAC4A0"/>
    </linearGradient>
    <linearGradient id="hair1" x1="0%" y1="0%" x2="100%" y2="100%">
      <stop offset="0%" style="stop-color:#4A3728"/>
      <stop offset="100%" style="stop-color:#2D1F14"/>
    </linearGradient>
    <linearGradient id="shirt1" x1="0%" y1="0%" x2="100%" y2="100%">
      <stop offset="0%" style="stop-color:#5B8DEF"/>
      <stop offset="100%" style="stop-color:#3D6DD4"/>
    </linearGradient>
    <filter id="shadow1" x="-20%" y="-20%" width="140%" height="140%">
      <feDropShadow dx="0" dy="2" stdDeviation="3" flood-opacity="0.15"/>
    </filter>
  </defs>
  <circle cx="50" cy="50" r="48" fill="url(#bg1)"/>
  <!-- Shirt/Body -->
  <path d="M50 62c-22 0-38 14-38 28v6h76v-6c0-14-16-28-38-28z" fill="url(#shirt1)" filter="url(#shadow1)"/>
  <!-- Neck -->
  <rect x="42" y="54" width="16" height="12" rx="2" fill="url(#skin1)"/>
  <!-- Face -->
  <ellipse cx="50" cy="42" rx="22" ry="24" fill="url(#skin1)" filter="url(#shadow1)"/>
  <!-- Hair -->
  <path d="M28 38c0-14 10-26 22-26s22 12 22 26c0 4-1 7-2 10 1-8-4-18-20-18s-21 10-20 18c-1-3-2-6-2-10z" fill="url(#hair1)"/>
  <ellipse cx="30" cy="40" rx="4" ry="6" fill="url(#hair1)"/>
  <ellipse cx="70" cy="40" rx="4" ry="6" fill="url(#hair1)"/>
  <!-- Ears -->
  <ellipse cx="28" cy="44" rx="4" ry="5" fill="url(#skin1)"/>
  <ellipse cx="72" cy="44" rx="4" ry="5" fill="url(#skin1)"/>
  <!-- Eyebrows -->
  <path d="M36 32c2-1.5 6-2 8 0" stroke="#4A3728" stroke-width="1.5" stroke-linecap="round" fill="none"/>
  <path d="M56 32c2-2 6-1.5 8 0" stroke="#4A3728" stroke-width="1.5" stroke-linecap="round" fill="none"/>
  <!-- Eyes -->
  <ellipse cx="40" cy="40" rx="5" ry="5" fill="white"/>
  <ellipse cx="60" cy="40" rx="5" ry="5" fill="white"/>
  <ellipse cx="41" cy="40" rx="3" ry="3" fill="#3D4852"/>
  <ellipse cx="61" cy="40" rx="3" ry="3" fill="#3D4852"/>
  <circle cx="42" cy="39" r="1" fill="white"/>
  <circle cx="62" cy="39" r="1" fill="white"/>
  <!-- Nose -->
  <path d="M50 42v6c0 2-3 3-3 3" stroke="#D4A574" stroke-width="1.5" stroke-linecap="round" fill="none"/>
  <!-- Smile -->
  <path d="M42 52c3 4 13 4 16 0" stroke="#C4846C" stroke-width="2" stroke-linecap="round" fill="none"/>
  <!-- Cheeks -->
  <ellipse cx="34" cy="48" rx="4" ry="2" fill="#FFB5A7" opacity="0.5"/>
  <ellipse cx="66" cy="48" rx="4" ry="2" fill="#FFB5A7" opacity="0.5"/>
</svg>