<svg xmlns="http://www.w3.org/2000/svg" viewBox="0 0 100 100" fill="none">
  <defs>
    <linearGradient id="bg6" x1="0%" y1="0%" x2="100%" y2="100%">
      <stop offset="0%" style="stop-color:#ECFDF5"/>
      <stop offset="100%" style="stop-color:#D1FAE5"/>
    </linearGradient>
    <linearGradient id="skin6" x1="0%" y1="0%" x2="100%" y2="100%">
      <stop offset="0%" style="stop-color:#F5D5C8"/>
      <stop offset="100%" style="stop-color:#E5C0A8"/>
    </linearGradient>
    <linearGradient id="hair6" x1="0%" y1="0%" x2="100%" y2="100%">
      <stop offset="0%" style="stop-color:#92400E"/>
      <stop offset="100%" style="stop-color:#78350F"/>
    </linearGradient>
    <linearGradient id="shirt6" x1="0%" y1="0%" x2="100%" y2="100%">
      <stop offset="0%" style="stop-color:#0891B2"/>
      <stop offset="100%" style="stop-color:#0E7490"/>
    </linearGradient>
    <filter id="shadow6" x="-20%" y="-20%" width="140%" height="140%">
      <feDropShadow dx="0" dy="2" stdDeviation="3" flood-opacity="0.15"/>
    </filter>
  </defs>
  <circle cx="50" cy="50" r="48" fill="url(#bg6)"/>
  <!-- Shirt/Body -->
  <path d="M50 62c-22 0-38 14-38 28v6h76v-6c0-14-16-28-38-28z" fill="url(#shirt6)" filter="url(#shadow6)"/>
  <!-- Neck -->
  <rect x="42" y="54" width="16" height="12" rx="2" fill="url(#skin6)"/>
  <!-- Face -->
  <ellipse cx="50" cy="42" rx="22" ry="24" fill="url(#skin6)" filter="url(#shadow6)"/>
  <!-- Bun hairstyle -->
  <path d="M28 40c0-14 10-26 22-26s22 12 22 26c0 3-0.5 5-1 7-1-10-7-16-21-16s-20 6-21 16c-0.5-2-1-4-1-7z" fill="url(#hair6)"/>
  <circle cx="50" cy="14" r="10" fill="url(#hair6)" filter="url(#shadow6)"/>
  <!-- Hair details -->
  <ellipse cx="28" cy="38" rx="5" ry="7" fill="url(#hair6)"/>
  <ellipse cx="72" cy="38" rx="5" ry="7" fill="url(#hair6)"/>
  <!-- Ears with earrings -->
  <ellipse cx="28" cy="44" rx="4" ry="5" fill="url(#skin6)"/>
  <ellipse cx="72" cy="44" rx="4" ry="5" fill="url(#skin6)"/>
  <circle cx="28" cy="50" r="2" fill="#F59E0B"/>
  <circle cx="72" cy="50" r="2" fill="#F59E0B"/>
  <!-- Eyebrows -->
  <path d="M35 34c2-1.5 6-2 8 0" stroke="#78350F" stroke-width="1.5" stroke-linecap="round" fill="none"/>
  <path d="M57 34c2-2 6-1.5 8 0" stroke="#78350F" stroke-width="1.5" stroke-linecap="round" fill="none"/>
  <!-- Eyes -->
  <ellipse cx="40" cy="42" rx="5" ry="5" fill="white"/>
  <ellipse cx="60" cy="42" rx="5" ry="5" fill="white"/>
  <ellipse cx="41" cy="42" rx="3" ry="3" fill="#065F46"/>
  <ellipse cx="61" cy="42" rx="3" ry="3" fill="#065F46"/>
  <circle cx="42" cy="41" r="1" fill="white"/>
  <circle cx="62" cy="41" r="1" fill="white"/>
  <!-- Eyelashes -->
  <path d="M35 40l-1-1.5M36 38.5l-0.5-1.5M37 37.5l0-1.5" stroke="#78350F" stroke-width="0.8" stroke-linecap="round"/>
  <path d="M65 40l1-1.5M64 38.5l0.5-1.5M63 37.5l0-1.5" stroke="#78350F" stroke-width="0.8" stroke-linecap="round"/>
  <!-- Nose -->
  <path d="M50 44v5c0 1.5-2 2-2 2" stroke="#C9A08A" stroke-width="1.5" stroke-linecap="round" fill="none"/>
  <!-- Smile with lipstick -->
  <path d="M43 54c2.5 3 11.5 3 14 0" stroke="#E11D48" stroke-width="2.5" stroke-linecap="round" fill="none"/>
  <!-- Cheeks -->
  <ellipse cx="34" cy="50" rx="4" ry="2" fill="#F9A8D4" opacity="0.5"/>
  <ellipse cx="66" cy="50" rx="4" ry="2" fill="#F9A8D4" opacity="0.5"/>
</svg>