<svg xmlns="http://www.w3.org/2000/svg" viewBox="0 0 100 100" fill="none">
  <defs>
    <linearGradient id="bg4" x1="0%" y1="0%" x2="100%" y2="100%">
      <stop offset="0%" style="stop-color:#FDF4FF"/>
      <stop offset="100%" style="stop-color:#FAE8FF"/>
    </linearGradient>
    <linearGradient id="skin4" x1="0%" y1="0%" x2="100%" y2="100%">
      <stop offset="0%" style="stop-color:#C68642"/>
      <stop offset="100%" style="stop-color:#A5682A"/>
    </linearGradient>
    <linearGradient id="hair4" x1="0%" y1="0%" x2="100%" y2="100%">
      <stop offset="0%" style="stop-color:#1A1A1A"/>
      <stop offset="100%" style="stop-color:#0A0A0A"/>
    </linearGradient>
    <linearGradient id="shirt4" x1="0%" y1="0%" x2="100%" y2="100%">
      <stop offset="0%" style="stop-color:#EC4899"/>
      <stop offset="100%" style="stop-color:#DB2777"/>
    </linearGradient>
    <linearGradient id="hijab" x1="0%" y1="0%" x2="100%" y2="100%">
      <stop offset="0%" style="stop-color:#A855F7"/>
      <stop offset="100%" style="stop-color:#7C3AED"/>
    </linearGradient>
    <filter id="shadow4" x="-20%" y="-20%" width="140%" height="140%">
      <feDropShadow dx="0" dy="2" stdDeviation="3" flood-opacity="0.15"/>
    </filter>
  </defs>
  <circle cx="50" cy="50" r="48" fill="url(#bg4)"/>
  <!-- Shirt/Body -->
  <path d="M50 64c-22 0-38 14-38 28v6h76v-6c0-14-16-28-38-28z" fill="url(#shirt4)" filter="url(#shadow4)"/>
  <!-- Hijab base -->
  <ellipse cx="50" cy="44" rx="30" ry="32" fill="url(#hijab)" filter="url(#shadow4)"/>
  <!-- Face opening -->
  <ellipse cx="50" cy="44" rx="20" ry="22" fill="url(#skin4)"/>
  <!-- Hijab drape -->
  <path d="M20 50c0 18 8 32 20 40h-8c-8-10-14-24-14-40 0-12 4-22 10-28-5 6-8 16-8 28z" fill="url(#hijab)" opacity="0.8"/>
  <path d="M80 50c0 18-8 32-20 40h8c8-10 14-24 14-40 0-12-4-22-10-28 5 6 8 16 8 28z" fill="url(#hijab)" opacity="0.8"/>
  <!-- Eyebrows -->
  <path d="M38 36c2-1.5 5-2 7 0" stroke="#1A1A1A" stroke-width="1.5" stroke-linecap="round" fill="none"/>
  <path d="M55 36c2-2 5-1.5 7 0" stroke="#1A1A1A" stroke-width="1.5" stroke-linecap="round" fill="none"/>
  <!-- Eyes -->
  <ellipse cx="42" cy="42" rx="5" ry="5" fill="white"/>
  <ellipse cx="58" cy="42" rx="5" ry="5" fill="white"/>
  <ellipse cx="43" cy="42" rx="3" ry="3" fill="#422006"/>
  <ellipse cx="59" cy="42" rx="3" ry="3" fill="#422006"/>
  <circle cx="44" cy="41" r="1" fill="white"/>
  <circle cx="60" cy="41" r="1" fill="white"/>
  <!-- Eyelashes -->
  <path d="M37 40l-1-2M38 38l-1-2M39 37l0-2" stroke="#1A1A1A" stroke-width="0.8" stroke-linecap="round"/>
  <path d="M63 40l1-2M62 38l1-2M61 37l0-2" stroke="#1A1A1A" stroke-width="0.8" stroke-linecap="round"/>
  <!-- Nose -->
  <path d="M50 44v5c0 1.5-2 2-2 2" stroke="#996B4A" stroke-width="1.5" stroke-linecap="round" fill="none"/>
  <!-- Smile -->
  <path d="M44 56c2.5 3 9.5 3 12 0" stroke="#8B5A3A" stroke-width="2" stroke-linecap="round" fill="none"/>
  <!-- Cheeks -->
  <ellipse cx="36" cy="50" rx="4" ry="2" fill="#E07A5F" opacity="0.4"/>
  <ellipse cx="64" cy="50" rx="4" ry="2" fill="#E07A5F" opacity="0.4"/>
</svg>